<svg width="1440" height="443" viewBox="0 0 1440 443" fill="none" xmlns="http://www.w3.org/2000/svg">
<g opacity="0.4" clip-path="url(#clip0_453_1322)">
<path d="M1361 443C1354.1 440.225 1241.39 427.388 1185.9 421.317C1152.09 426.868 952.154 419.004 856.412 414.378C838.471 400.501 460.792 328.801 274.195 294.686C184.13 286.291 3.2 269.4 0 269" stroke="black"/>
<path d="M553 349C706.436 333.211 1083.3 243.412 1363.28 10.5314C1366.44 8.23478 1371.04 6.22422 1377.07 10.5314L1440 57.8997" stroke="black"/>
<path d="M541 346C548.749 346 962.018 317.556 1363.23 3.8074C1365.53 0.934246 1372.19 -3.08817 1380.45 3.8074C1399.4 18.4604 1437.62 48.1112 1439 49.4904" stroke="black"/>
<line x1="599.5" y1="343" x2="599.5" y2="355" stroke="black"/>
<line x1="618.5" y1="340" x2="618.5" y2="355" stroke="black"/>
<line x1="637.5" y1="336" x2="637.5" y2="355" stroke="black"/>
<line x1="654.5" y1="333" x2="654.5" y2="355" stroke="black"/>
<line x1="673.5" y1="329" x2="673.5" y2="355" stroke="black"/>
<line x1="692.5" y1="324" x2="692.5" y2="355" stroke="black"/>
<line x1="711.5" y1="321" x2="711.5" y2="355" stroke="black"/>
<line x1="730.5" y1="316" x2="730.5" y2="355" stroke="black"/>
<line x1="747.5" y1="312" x2="747.5" y2="355" stroke="black"/>
<line x1="766.5" y1="307" x2="766.5" y2="355" stroke="black"/>
<line x1="785.5" y1="302" x2="785.5" y2="355" stroke="black"/>
<line x1="802.5" y1="297" x2="802.5" y2="355" stroke="black"/>
<line x1="820.5" y1="292" x2="820.5" y2="355" stroke="black"/>
<line x1="839.5" y1="286" x2="839.5" y2="355" stroke="black"/>
<line x1="859.5" y1="280" x2="859.5" y2="355" stroke="black"/>
<line x1="878.5" y1="273" x2="878.5" y2="355" stroke="black"/>
<line x1="895.5" y1="267" x2="895.5" y2="355" stroke="black"/>
<line x1="914.5" y1="261" x2="914.5" y2="355" stroke="black"/>
<line x1="932.5" y1="254" x2="932.5" y2="355" stroke="black"/>
<line x1="949.5" y1="247" x2="949.5" y2="355" stroke="black"/>
<line x1="968.5" y1="240" x2="968.5" y2="355" stroke="black"/>
<line x1="987.5" y1="231" x2="987.5" y2="355" stroke="black"/>
<line x1="1006.5" y1="224" x2="1006.5" y2="355" stroke="black"/>
<line x1="1025.5" y1="216" x2="1025.5" y2="355" stroke="black"/>
<line x1="1044.5" y1="207" x2="1044.5" y2="355" stroke="black"/>
<line x1="1061.5" y1="199" x2="1061.5" y2="355" stroke="black"/>
<line x1="1080.5" y1="190" x2="1080.5" y2="355" stroke="black"/>
<line x1="1097.5" y1="181" x2="1097.5" y2="355" stroke="black"/>
<line x1="1116.5" y1="173" x2="1116.5" y2="355" stroke="black"/>
<line x1="1135.5" y1="162" x2="1135.5" y2="355" stroke="black"/>
<line x1="1154.5" y1="152" x2="1154.5" y2="355" stroke="black"/>
<line x1="1171.5" y1="142" x2="1171.5" y2="355" stroke="black"/>
<line x1="1190.5" y1="131" x2="1190.5" y2="355" stroke="black"/>
<line x1="1209.5" y1="119" x2="1209.5" y2="355" stroke="black"/>
<line x1="1226.5" y1="109" x2="1226.5" y2="355" stroke="black"/>
<line x1="1245.5" y1="97" x2="1245.5" y2="355" stroke="black"/>
<line x1="1264.5" y1="85" x2="1264.5" y2="355" stroke="black"/>
<line x1="1283.5" y1="71" x2="1283.5" y2="355" stroke="black"/>
<line x1="1302.5" y1="57" x2="1302.5" y2="355" stroke="black"/>
<line x1="1319.5" y1="45" x2="1319.5" y2="355" stroke="black"/>
<line x1="1421.5" y1="45" x2="1421.5" y2="355" stroke="black"/>
<line x1="1338.5" y1="30" x2="1338.5" y2="355" stroke="black"/>
<line x1="1402.5" y1="30" x2="1402.5" y2="355" stroke="black"/>
<line x1="1364.5" y1="2" x2="1364.5" y2="92" stroke="black"/>
<line x1="1361.5" y1="90" x2="1361.5" y2="180" stroke="black"/>
<line x1="1376.5" y1="2" x2="1376.5" y2="92" stroke="black"/>
<line x1="1381.5" y1="90" x2="1381.5" y2="174" stroke="black"/>
<line x1="1381.5" y1="174" x2="1381.5" y2="267" stroke="black"/>
<line x1="1359.5" y1="178" x2="1359.5" y2="267" stroke="black"/>
<line x1="1356.5" y1="266" x2="1356.5" y2="355" stroke="black"/>
<line x1="1385.5" y1="266" x2="1385.5" y2="355" stroke="black"/>
<line x1="1385.5" y1="364" x2="1385.5" y2="416" stroke="black"/>
<line x1="1356.5" y1="364" x2="1356.5" y2="416" stroke="black"/>
<line x1="1397" y1="416.5" x2="1345" y2="416.5" stroke="black"/>
<line x1="1406" y1="421.5" x2="1335" y2="421.5" stroke="black"/>
<line x1="1364" y1="84.5" x2="1376" y2="84.5" stroke="black"/>
<line x1="1381" y1="90.5" x2="1376" y2="90.5" stroke="black"/>
<line x1="1362" y1="91.5" x2="1366" y2="91.5" stroke="black"/>
<line x1="1356" y1="266.5" x2="1359" y2="266.5" stroke="black"/>
<line x1="1383" y1="266.5" x2="1387" y2="266.5" stroke="black"/>
<line x1="590" y1="354.5" x2="1440" y2="354.5" stroke="black"/>
<line x1="634" y1="363.5" x2="1440" y2="363.5" stroke="black"/>
<line x1="1361" y1="179.5" x2="1383" y2="179.5" stroke="black"/>
<line x1="1361" y1="261.5" x2="1383" y2="261.5" stroke="black"/>
<line x1="1335.5" y1="423" x2="1335.5" y2="440" stroke="black"/>
<line x1="1404.5" y1="423" x2="1404.5" y2="443" stroke="black"/>
<line x1="1395.5" y1="416" x2="1395.5" y2="423" stroke="black"/>
<line x1="1345.5" y1="416" x2="1345.5" y2="423" stroke="black"/>
</g>
<defs>
<clipPath id="clip0_453_1322">
<rect width="1440" height="443" fill="white"/>
</clipPath>
</defs>
</svg>
