<svg width="22" height="22" viewBox="0 0 26 26" fill="none" xmlns="http://www.w3.org/2000/svg">
<path d="M13 0C5.82074 0 0 5.82074 0 13C0 20.1801 5.82074 26 13 26C20.1801 26 26 20.1801 26 13C26 5.82074 20.1801 0 13 0ZM13 24.375C6.71778 24.375 1.62503 19.2822 1.62503 13C1.62503 6.71778 6.71778 1.62503 13 1.62503C19.2822 1.62503 24.375 6.71778 24.375 13C24.375 19.2822 19.2822 24.375 13 24.375Z" fill="#303C42"/>
<path d="M20.3125 12.1721H7.64317L11.8682 7.88617C12.1851 7.56604 12.1851 7.04607 11.8682 6.72594C11.5505 6.40581 11.0362 6.40581 10.7193 6.72594L5.11388 12.4126C4.96192 12.5646 4.875 12.7783 4.875 12.9928C4.875 13.2065 4.96273 13.4201 5.11307 13.5729L10.7185 19.2596C11.0362 19.5805 11.5505 19.5797 11.8674 19.2596C12.1851 18.9386 12.1851 18.4195 11.8674 18.0985L7.64236 13.8126H20.3125C20.761 13.8126 21.125 13.4453 21.125 12.992C21.125 12.5394 20.761 12.1721 20.3125 12.1721Z" fill="#303C42"/>
</svg>
