<svg width="18" height="17" viewBox="0 0 18 17" fill="none" xmlns="http://www.w3.org/2000/svg">
<g clip-path="url(#clip0_247_1181)">
<path d="M4.70535 0H4.25332C4.19563 0 4.14093 0.0114466 4.08794 0.0277114C3.82316 0.108813 3.62744 0.375789 3.62744 0.696044V0.989925V1.74214V2.1335C3.62744 2.20622 3.64027 2.27493 3.65888 2.34071C3.73856 2.62328 3.97302 2.82955 4.25332 2.82955H4.70535C5.05108 2.82955 5.33122 2.51795 5.33122 2.1335V1.74214V0.989925V0.696044C5.33122 0.311593 5.05108 0 4.70535 0Z" fill="#818B9E"/>
<path d="M13.6028 0H13.1508C12.805 0 12.5249 0.311593 12.5249 0.696044V0.989925V1.74214V2.1335C12.5249 2.51795 12.805 2.82955 13.1508 2.82955H13.6028C13.9485 2.82955 14.2287 2.51795 14.2287 2.1335V1.74214V0.989925V0.696044C14.2285 0.311593 13.9484 0 13.6028 0Z" fill="#818B9E"/>
<path d="M15.9119 1.74219H14.7926V2.13355C14.7926 2.81107 14.2588 3.36223 13.6028 3.36223H13.1508C12.4947 3.36223 11.9609 2.81107 11.9609 2.13355V1.74219H5.89535V2.13355C5.89535 2.81107 5.36154 3.36223 4.7055 3.36223H4.25346C3.59739 3.36223 3.06361 2.81107 3.06361 2.13355V1.74219H2.08838C1.46717 1.74219 0.963379 2.18827 0.963379 2.73824V16.004C0.963379 16.555 1.46714 17.0001 2.08838 17.0001H15.9117C16.5335 17.0001 17.0367 16.5549 17.0367 16.004V2.73838C17.0368 2.18841 16.5336 1.74219 15.9119 1.74219ZM15.563 15.5379L2.39616 15.5331V4.83818H15.563V15.5379Z" fill="#818B9E"/>
<path d="M10.4099 7.41541H13.8727C14.1733 7.41541 14.4164 7.13192 14.4164 6.78156C14.4164 6.4312 14.1732 6.14771 13.8727 6.14771H10.4099C10.1093 6.14771 9.86621 6.4312 9.86621 6.78156C9.86621 7.13178 10.1093 7.41541 10.4099 7.41541Z" fill="#818B9E"/>
<path d="M10.4099 9.70494H13.8727C14.1733 9.70494 14.4164 9.42144 14.4164 9.07108C14.4164 8.72075 14.1732 8.43726 13.8727 8.43726H10.4099C10.1093 8.43726 9.86621 8.72075 9.86621 9.07108C9.86621 9.42144 10.1093 9.70494 10.4099 9.70494Z" fill="#818B9E"/>
<path d="M10.4099 11.9945H13.8727C14.1733 11.9945 14.4164 11.711 14.4164 11.3607C14.4164 11.0103 14.1732 10.7268 13.8727 10.7268H10.4099C10.1093 10.7268 9.86621 11.0103 9.86621 11.3607C9.86621 11.711 10.1093 11.9945 10.4099 11.9945Z" fill="#818B9E"/>
<path d="M10.4099 14.2843H13.8727C14.1733 14.2843 14.4164 14.0008 14.4164 13.6505C14.4164 13.3001 14.1732 13.0166 13.8727 13.0166H10.4099C10.1093 13.0166 9.86621 13.3001 9.86621 13.6505C9.86621 14.0008 10.1093 14.2843 10.4099 14.2843Z" fill="#818B9E"/>
<path d="M4.27709 7.41541H7.73991C8.0405 7.41541 8.28357 7.13192 8.28357 6.78156C8.28357 6.4312 8.04035 6.14771 7.73991 6.14771H4.27709C3.97648 6.14771 3.7334 6.4312 3.7334 6.78156C3.73343 7.13178 3.97648 7.41541 4.27709 7.41541Z" fill="#818B9E"/>
<path d="M4.27709 9.70494H7.73991C8.0405 9.70494 8.28357 9.42144 8.28357 9.07108C8.28357 8.72075 8.04035 8.43726 7.73991 8.43726H4.27709C3.97648 8.43726 3.7334 8.72075 3.7334 9.07108C3.73343 9.42144 3.97648 9.70494 4.27709 9.70494Z" fill="#818B9E"/>
<path d="M4.27709 11.9945H7.73991C8.0405 11.9945 8.28357 11.711 8.28357 11.3607C8.28357 11.0103 8.04035 10.7268 7.73991 10.7268H4.27709C3.97648 10.7268 3.7334 11.0103 3.7334 11.3607C3.7334 11.711 3.97648 11.9945 4.27709 11.9945Z" fill="#818B9E"/>
<path d="M4.27709 14.2843H7.73991C8.0405 14.2843 8.28357 14.0008 8.28357 13.6505C8.28357 13.3001 8.04035 13.0166 7.73991 13.0166H4.27709C3.97648 13.0166 3.7334 13.3001 3.7334 13.6505C3.73343 14.0008 3.97648 14.2843 4.27709 14.2843Z" fill="#818B9E"/>
</g>
<defs>
<clipPath id="clip0_247_1181">
<rect width="18" height="17" fill="white"/>
</clipPath>
</defs>
</svg>
